<?xml version="1.0" encoding="UTF-8"?>
<svg id="Layer_2" data-name="Layer 2" xmlns="http://www.w3.org/2000/svg" viewBox="0 0 98.55 25.65">
  <defs>
    <style>
      .cls-1 {
        fill: #fff;
      }
    </style>
  </defs>
  <g id="Layer_1-2" data-name="Layer 1">
    <g>
      <rect class="cls-1" width="28.06" height="25.65"/>
      <g>
        <path class="cls-1" d="M31.17,12.44l-2.42-7.32h2.13l1.38,4.75,1.38-4.75h1.95l-2.42,7.32v5.42h-2v-5.42Z"/>
        <path class="cls-1" d="M37.64,5.12h2v5.19h2.15v-5.19h2v12.74h-2v-5.73h-2.15v5.73h-2V5.12Z"/>
        <path class="cls-1" d="M50.4,15.37h-2.31l-.35,2.49h-1.86l2.08-12.74h2.71l2.08,12.74h-2l-.35-2.49ZM50.14,13.64l-.91-6.43-.89,6.43h1.8Z"/>
        <path class="cls-1" d="M54.84,5.12h2.48l2.02,7.63v-7.63h1.78v12.74h-2.02l-2.48-9.3v9.3h-1.78V5.12Z"/>
        <path class="cls-1" d="M71.79,15.37h-2.31l-.35,2.49h-1.86l2.08-12.74h2.71l2.08,12.74h-2l-.35-2.49ZM71.54,13.64l-.91-6.43-.89,6.43h1.8Z"/>
        <path class="cls-1" d="M78.05,12.44l-2.42-7.32h2.13l1.38,4.75,1.38-4.75h1.95l-2.42,7.32v5.42h-2v-5.42Z"/>
        <path class="cls-1" d="M88.48,15.37h-2.31l-.35,2.49h-1.86l2.08-12.74h2.71l2.08,12.74h-2l-.35-2.49ZM88.23,13.64l-.91-6.43-.89,6.43h1.8Z"/>
        <path class="cls-1" d="M92.58,14.84v-.73h1.89v.87c0,.91.4,1.24,1.04,1.24s1.06-.33,1.06-1.27c0-1.06-.44-1.71-1.75-2.86-1.67-1.47-2.24-2.53-2.24-3.99,0-2,1.04-3.17,2.99-3.17s2.91,1.17,2.91,3.2v.53h-1.89v-.66c0-.91-.36-1.26-1-1.26s-1.02.35-1.02,1.22c0,.93.46,1.58,1.77,2.73,1.67,1.47,2.22,2.51,2.22,4.1,0,2.08-1.06,3.24-3.02,3.24s-2.95-1.17-2.95-3.2Z"/>
      </g>
      <g>
        <path d="M8.67,12.25l-.82,1.6v4h-2V5.12h2v5.48l2.51-5.48h2.04l-2.38,4.68,2.42,8.06h-2.09l-1.67-5.61Z"/>
        <path d="M18.5,15.37h-2.31l-.35,2.49h-1.86l2.08-12.74h2.71l2.08,12.74h-2l-.35-2.49ZM18.25,13.64l-.91-6.43-.89,6.43h1.8Z"/>
      </g>
    </g>
  </g>
</svg>